<?xml version="1.0" standalone="no"?>
<!DOCTYPE svg PUBLIC "-//W3C//DTD SVG 20010904//EN"
 "http://www.w3.org/TR/2001/REC-SVG-20010904/DTD/svg10.dtd">
<svg version="1.0" xmlns="http://www.w3.org/2000/svg"
 width="1024.000000pt" height="1024.000000pt" viewBox="0 0 1024.000000 1024.000000"
 preserveAspectRatio="xMidYMid meet">

<g transform="translate(0.000000,1024.000000) scale(0.100000,-0.100000)"
fill="#000000" stroke="none">
<path d="M5609 9320 c-20 -11 -55 -40 -77 -65 -95 -108 -96 -263 -3 -394 11
-15 23 -39 26 -54 13 -51 -21 -29 -121 79 -103 111 -174 166 -270 210 -239
107 -445 112 -676 17 -237 -98 -381 -251 -482 -513 -12 -30 -26 -63 -32 -73
-10 -18 -78 -40 -88 -29 -4 3 -6 40 -6 82 0 56 5 86 20 115 24 47 25 74 5 121
-37 88 -70 97 -122 32 -25 -30 -33 -50 -33 -79 0 -40 17 -89 32 -89 4 0 8 -40
8 -89 l0 -90 -52 -16 c-29 -9 -58 -18 -64 -21 -6 -3 -29 25 -50 62 -49 84
-151 195 -218 238 -75 47 -184 93 -255 107 -86 16 -247 7 -336 -21 -169 -53
-328 -189 -411 -352 -60 -117 -85 -321 -54 -438 22 -88 71 -205 101 -242 16
-20 29 -41 29 -46 0 -5 -26 -29 -57 -53 -32 -24 -76 -60 -98 -80 -39 -35 -43
-36 -135 -42 -109 -6 -219 -38 -350 -100 -71 -33 -100 -56 -176 -131 -80 -81
-97 -104 -147 -206 -82 -167 -101 -244 -101 -410 0 -200 41 -351 127 -475 l35
-50 -36 -45 c-19 -25 -38 -48 -42 -53 -3 -4 -25 2 -49 13 -58 29 -147 29 -205
0 -103 -49 -157 -219 -105 -327 25 -51 66 -88 134 -119 63 -30 95 -30 169 1
33 13 61 23 62 22 0 -1 -2 -29 -6 -62 -5 -33 -4 -184 1 -335 4 -151 10 -512
13 -801 l4 -526 -57 -17 c-115 -34 -182 -127 -183 -250 0 -78 26 -132 96 -193
81 -71 176 -83 271 -32 32 17 61 27 64 22 4 -4 20 -38 35 -75 53 -129 213
-278 354 -332 61 -23 225 -32 321 -17 76 12 101 6 101 -26 0 -7 -34 -46 -76
-86 -158 -149 -249 -335 -261 -534 -7 -102 8 -183 54 -295 84 -209 291 -392
488 -433 102 -21 246 -19 340 5 92 23 215 87 267 137 40 39 28 38 174 12 l71
-13 7 -78 c6 -71 4 -81 -15 -108 -20 -26 -21 -34 -11 -67 13 -42 55 -93 77
-93 19 0 64 61 80 107 12 33 11 40 -6 62 -21 26 -26 102 -10 144 8 20 18 25
60 30 111 13 256 81 362 169 26 21 50 38 53 38 16 0 2 -32 -34 -78 -55 -69
-70 -109 -70 -191 0 -80 11 -115 48 -154 36 -38 56 -36 47 6 -11 54 -18 219
-8 226 5 3 20 28 33 55 34 66 57 79 138 78 75 -1 102 13 95 52 -3 15 1 25 11
29 19 7 53 -40 63 -85 3 -16 9 -28 14 -28 5 0 9 -5 9 -11 0 -27 98 -149 155
-194 184 -144 333 -189 547 -166 217 24 404 120 518 266 l52 65 31 -17 c18 -9
42 -23 54 -33 l21 -17 -37 -35 c-54 -50 -75 -101 -76 -178 0 -80 35 -148 89
-174 47 -22 134 -20 207 5 l61 21 47 -21 46 -22 1247 3 c1241 3 1247 3 1274
24 78 58 91 137 39 233 -51 92 -105 130 -420 290 -376 190 -395 202 -495 311
-45 50 -109 109 -141 131 -33 22 -59 47 -59 56 0 8 20 33 45 55 62 55 103 117
136 207 39 106 88 151 187 175 48 12 87 30 117 53 26 19 51 33 58 30 9 -3 12
15 12 62 0 68 26 141 53 149 11 3 11 -2 -1 -24 -14 -28 -29 -94 -40 -176 -9
-63 49 -108 139 -108 76 0 111 21 141 86 61 133 -10 264 -144 264 -57 0 -48
12 26 34 43 13 105 16 295 16 133 0 257 5 277 10 79 22 159 121 159 197 0 88
-50 115 -223 121 l-129 5 6 41 c12 83 18 1523 6 1563 -6 21 -24 56 -40 78 -72
98 -78 110 -85 175 l-7 64 43 -45 c48 -49 120 -89 160 -89 50 0 123 33 164 74
96 97 81 255 -31 326 -27 16 -53 30 -58 30 -6 0 -17 4 -25 9 -12 8 -8 19 22
63 22 32 41 74 47 105 14 75 13 1202 -2 1245 -49 148 -259 143 -296 -7 -6 -22
-13 -221 -17 -442 -3 -221 -10 -414 -14 -430 -11 -41 -21 -15 -31 84 -5 49
-17 156 -25 238 -21 199 -60 421 -86 489 -21 56 -87 154 -130 192 -13 12 -76
55 -139 97 -106 69 -216 162 -363 307 l-58 57 30 32 c16 17 35 48 42 68 26 80
-16 190 -93 241 -58 38 -157 38 -239 0 l-56 -26 -5 132 c-5 113 -10 145 -38
228 -60 180 -166 322 -319 427 -168 115 -295 155 -496 155 -123 0 -136 -2
-236 -36 -187 -64 -330 -169 -436 -320 -30 -43 -55 -78 -56 -78 -1 0 -35 11
-76 24 l-75 24 71 68 c82 79 115 135 121 209 7 86 -20 161 -81 220 -32 31 -68
55 -93 63 -61 18 -143 14 -185 -8z m171 -62 c49 -25 87 -78 73 -102 -11 -20
-18 -19 -52 13 -17 16 -45 31 -62 35 -69 14 -157 -64 -166 -148 -6 -51 -16
-57 -37 -23 -24 38 -28 82 -11 123 46 111 153 154 255 102z m-29 -162 c27 -59
-25 -115 -76 -82 -48 31 -22 106 37 106 20 0 32 -7 39 -24z m105 -66 l-6 -35
20 35 21 35 -5 -32 c-7 -44 -53 -111 -89 -129 -20 -11 -27 -12 -22 -3 6 8 4
10 -6 3 -8 -4 -34 -10 -59 -11 -36 -3 -51 1 -75 21 -29 25 -29 25 -5 19 71
-16 100 -15 134 6 40 25 76 91 77 142 0 33 1 33 10 9 6 -14 8 -41 5 -60z
m-840 26 c64 -20 204 -95 204 -108 0 -2 -25 -4 -55 -5 -36 -2 -70 4 -101 17
-25 11 -55 20 -67 20 -18 -1 -15 -5 15 -20 20 -11 44 -30 52 -42 9 -12 16 -19
16 -15 0 4 14 -7 30 -25 17 -17 30 -32 30 -34 0 -1 -27 11 -60 27 -120 58
-354 75 -468 34 -270 -97 -426 -337 -409 -629 3 -56 13 -125 21 -153 8 -29 11
-53 6 -53 -4 0 -10 7 -14 15 -3 8 -16 20 -29 26 -14 6 -31 25 -40 42 -15 32
-16 32 -16 6 -1 -40 28 -126 70 -210 30 -62 35 -78 24 -83 -30 -11 -114 142
-148 269 -51 193 -17 421 88 590 112 180 261 289 469 346 102 28 270 21 382
-15z m1770 -1 c135 -24 291 -105 396 -206 28 -26 25 -25 -79 29 -45 23 -121
53 -169 67 -93 27 -138 32 -88 11 26 -12 43 -38 44 -67 0 -3 -35 1 -77 9 -88
15 -204 10 -298 -14 -111 -29 -241 -112 -300 -192 -54 -72 -113 -200 -127
-272 -13 -73 -21 -88 -40 -74 -7 6 -28 11 -46 13 l-33 3 5 -44 c3 -24 11 -88
17 -143 5 -55 16 -124 24 -153 7 -30 10 -62 7 -73 -6 -15 -13 -7 -34 39 -41
87 -59 166 -65 287 -7 142 12 238 71 360 83 172 185 279 337 356 148 74 284
93 455 64z m-1873 -224 c15 -6 6 -8 -28 -9 -26 0 -51 -5 -55 -12 -5 -7 -11 -6
-21 6 -13 16 -14 15 -19 -12 -4 -20 -13 -31 -30 -36 -14 -4 -54 -17 -90 -29
-36 -11 -75 -22 -88 -23 -12 -1 -30 -12 -38 -24 -14 -20 -17 -21 -39 -6 -13 9
-32 14 -42 12 -15 -4 -12 -8 13 -23 l32 -19 -56 -73 c-40 -54 -59 -72 -71 -67
-9 3 -24 9 -33 11 -24 7 -23 20 5 72 54 99 203 210 320 236 62 15 197 12 240
-4z m1919 -19 c218 -61 369 -258 370 -482 1 -60 -3 -73 -28 -108 l-30 -40 1
127 0 126 -43 82 c-94 178 -251 261 -472 251 -69 -3 -98 -10 -152 -35 -170
-80 -269 -241 -270 -438 -1 -137 49 -253 146 -343 101 -93 198 -126 355 -120
70 2 94 1 71 -5 -19 -4 -57 -15 -83 -24 -70 -22 -167 -14 -236 22 -61 31 -83
49 -73 60 4 5 2 5 -5 1 -14 -8 -65 22 -58 34 3 4 -3 14 -13 21 -15 13 -16 12
-3 -3 8 -11 9 -18 3 -18 -14 0 -83 92 -111 147 -70 139 -64 348 13 501 51 100
167 200 278 239 105 37 220 38 340 5z m-3690 -36 c92 -20 211 -80 269 -137 47
-46 129 -162 129 -182 0 -6 -7 -2 -15 9 -14 19 -14 18 -15 -3 0 -13 -6 -23
-14 -23 -23 0 -28 -17 -16 -59 17 -64 15 -179 -4 -200 -9 -10 -16 -31 -16 -47
0 -16 -5 -36 -10 -44 -8 -12 -10 -12 -10 -1 0 10 -3 11 -13 2 -8 -6 -17 -7
-22 -3 -4 4 -5 -8 -1 -27 3 -19 3 -32 0 -28 -4 4 -7 66 -8 139 -1 131 -1 134
-35 196 -42 77 -94 125 -180 166 -59 28 -76 31 -156 31 -82 0 -97 -3 -156 -32
-102 -50 -141 -84 -176 -149 -63 -118 -66 -246 -10 -357 34 -66 39 -124 10
-113 -8 3 -27 -3 -43 -14 -36 -26 -38 -25 -72 7 -24 23 -30 25 -38 13 -5 -8
-7 -23 -4 -34 12 -37 -17 -4 -46 53 -54 109 -78 249 -60 351 32 176 152 350
292 421 148 75 275 95 420 65z m2600 -83 c33 -30 16 -133 -24 -141 -18 -3 -40
31 -52 81 -5 21 -1 33 18 52 30 30 34 30 58 8z m-849 -43 c86 -27 156 -89 197
-175 39 -82 38 -103 -7 -138 l-37 -28 -17 60 c-23 84 -54 127 -117 158 -107
53 -212 35 -288 -49 -69 -77 -80 -146 -40 -260 17 -49 20 -65 10 -61 -8 3 -14
0 -14 -6 0 -6 -7 -11 -16 -11 -8 0 -12 -4 -9 -10 3 -5 2 -10 -4 -10 -16 0 -59
69 -77 124 -22 66 -14 140 26 224 46 99 98 148 193 182 67 25 120 25 200 0z
m-75 -186 c37 -25 28 -56 -33 -113 -57 -53 -72 -58 -106 -41 -14 8 -19 21 -19
52 0 34 6 47 39 79 43 43 80 50 119 23z m1894 -5 c20 -11 20 -11 -2 -34 -12
-13 -34 -26 -48 -30 -45 -11 -80 -44 -98 -91 l-18 -47 -19 24 c-22 28 -19 84
8 125 35 54 124 81 177 53z m-3628 -38 c25 -10 45 -88 38 -149 -5 -50 -45
-119 -84 -147 -13 -9 -44 -15 -73 -15 -39 0 -53 -4 -63 -20 -31 -50 -104 -8
-118 68 -18 94 36 205 119 247 52 25 138 33 181 16z m3605 -73 c9 -25 8 -36
-4 -55 -19 -28 -29 -29 -55 -3 -36 36 -21 90 26 90 16 0 25 -9 33 -32z m-2349
-14 c13 -33 6 -44 -30 -44 -34 0 -44 12 -36 46 9 34 53 34 66 -2z m907 -16
c-3 -8 -6 -5 -6 6 -1 11 2 17 5 13 3 -3 4 -12 1 -19z m154 -108 c-9 -23 -10
-21 -10 15 -1 22 3 51 7 65 6 22 7 20 10 -15 2 -23 -1 -52 -7 -65z m666 -2
c-3 -8 -6 -5 -6 6 -1 11 2 17 5 13 3 -3 4 -12 1 -19z m968 -64 c-20 -71 -87
-145 -166 -185 -56 -28 -168 -59 -215 -59 -26 0 -33 15 -11 23 8 3 24 29 36
59 20 48 27 55 78 78 54 23 129 85 149 122 6 12 29 20 74 25 36 5 66 5 68 1 2
-4 -4 -33 -13 -64z m738 -2 c21 -21 31 -42 34 -74 5 -43 3 -46 -41 -85 -45
-40 -46 -42 -46 -100 0 -32 -5 -64 -11 -70 -7 -7 -1 -12 20 -16 57 -12 151
-115 151 -167 0 -29 -28 -26 -103 14 -50 27 -66 32 -71 21 -2 -7 -35 -29 -73
-48 -52 -26 -77 -33 -105 -29 l-38 4 0 49 c0 42 5 54 36 89 22 24 55 47 83 56
l46 17 0 81 0 81 48 47 c42 40 47 49 38 66 -14 26 -42 35 -73 23 -30 -11 -47
-32 -62 -76 -12 -33 -13 -34 -34 -19 -31 21 -29 74 3 112 57 68 143 79 198 24z
m-3884 -97 c39 -45 41 -86 5 -114 -15 -12 -35 -21 -44 -21 -24 0 -70 56 -70
85 0 23 49 85 68 85 5 0 24 -16 41 -35z m1436 -55 c-43 -81 -147 -186 -224
-225 -148 -74 -405 -97 -491 -43 -11 7 -10 8 5 3 41 -14 203 -17 275 -6 48 7
105 26 158 51 69 33 98 55 168 127 47 48 98 109 112 135 41 74 38 38 -3 -42z
m440 65 c14 -13 25 -33 25 -44 0 -26 -47 -81 -70 -81 -39 0 -76 81 -52 116 9
14 44 33 60 34 7 0 24 -11 37 -25z m-2385 -45 c0 -5 -5 -10 -11 -10 -5 0 -7 5
-4 10 3 6 8 10 11 10 2 0 4 -4 4 -10z m3796 -27 c-36 -70 -161 -188 -243 -232
-42 -22 -23 -3 24 25 52 30 147 124 194 192 34 48 46 55 25 15z m-2666 -2 c14
-26 13 -44 -4 -66 -13 -18 -15 -18 -39 -2 -35 23 -45 57 -21 74 26 19 52 16
64 -6z m634 -3 c13 -22 2 -43 -38 -72 -23 -18 -28 -19 -36 -6 -17 27 -11 68
13 85 26 19 46 16 61 -7z m-1855 -75 c0 -11 -3 -13 -6 -5 -2 6 -10 9 -15 6 -7
-4 -8 -2 -4 4 11 18 26 14 25 -5z m3711 7 c0 -5 -4 -10 -10 -10 -5 0 -10 5
-10 10 0 6 5 10 10 10 6 0 10 -4 10 -10z m-3767 -40 c-6 -22 -21 -35 -30 -26
-5 5 24 46 33 46 1 0 0 -9 -3 -20z m1572 -36 c0 -32 -3 -39 -20 -39 -24 0 -30
22 -15 59 14 39 35 27 35 -20z m556 13 c-10 -9 -11 -8 -5 6 3 10 9 15 12 12 3
-3 0 -11 -7 -18z m-2204 -13 c-3 -3 -12 -4 -19 -1 -8 3 -5 6 6 6 11 1 17 -2
13 -5z m-37 -10 c0 -1 -24 -7 -52 -13 -40 -8 -65 -8 -100 2 -47 12 -47 12 52
13 55 0 100 -1 100 -2z m1220 -68 c0 -11 -19 -15 -25 -6 -3 5 1 10 9 10 9 0
16 -2 16 -4z m1521 -28 c76 -35 133 -88 166 -156 25 -50 28 -68 28 -152 0 -83
-3 -102 -27 -151 -37 -75 -90 -126 -168 -162 -160 -74 -324 -32 -414 105 -106
162 -79 379 60 485 91 69 245 82 355 31z m-2106 -39 c48 -13 110 -75 120 -118
3 -16 1 -48 -5 -71 -9 -33 -21 -47 -57 -71 -41 -25 -56 -29 -120 -29 l-73 0 0
-37 c0 -21 -3 -62 -6 -90 -5 -42 -11 -53 -25 -53 -10 0 -20 4 -23 9 -3 4 -6
108 -7 231 -1 179 1 224 12 231 20 12 136 11 184 -2z m430 -8 c22 -10 48 -27
57 -38 16 -17 16 -22 4 -39 -14 -18 -15 -18 -54 4 -115 64 -232 -13 -232 -154
0 -101 49 -162 137 -172 50 -5 113 20 113 45 0 8 7 13 18 11 12 -2 17 -13 17
-38 0 -97 -194 -111 -285 -20 -43 43 -60 95 -60 183 0 81 9 104 57 158 68 75
149 96 228 60z m2562 3 c-3 -3 -12 -4 -19 -1 -8 3 -5 6 6 6 11 1 17 -2 13 -5z
m677 -41 c3 -10 10 -49 17 -88 14 -89 60 -184 122 -251 l48 -53 -37 -7 c-33
-6 -39 -4 -63 27 -14 19 -42 52 -62 74 -62 68 -74 100 -74 196 0 58 4 91 14
102 17 22 28 21 35 0z m-5010 -138 c166 -35 340 -156 439 -304 89 -132 125
-248 134 -434 5 -94 4 -107 -10 -102 -11 5 -17 27 -22 78 -28 302 -196 550
-437 646 -108 43 -119 38 -20 -9 45 -21 82 -41 82 -43 0 -3 -17 -3 -39 0 -26
4 -46 0 -63 -11 -13 -9 -28 -13 -32 -9 -4 4 -4 0 -1 -9 4 -9 1 -19 -4 -23 -6
-3 -9 -10 -6 -15 7 -11 -36 -6 -112 14 -72 19 -142 20 -215 5 -68 -15 -101
-32 -164 -85 -28 -24 -63 -48 -77 -55 -24 -11 -30 -9 -67 25 -22 20 -49 36
-60 36 -31 0 -24 -7 30 -35 28 -14 50 -29 50 -34 0 -5 -20 -41 -44 -80 -43
-70 -101 -226 -98 -266 1 -18 0 -18 -9 -2 -6 11 -22 17 -44 17 -39 0 -49 18
-41 77 3 21 -6 -5 -20 -57 l-25 -95 21 -120 c45 -258 162 -436 342 -519 194
-90 180 -86 283 -93 147 -9 371 55 464 133 28 23 79 55 121 76 14 7 28 17 32
23 4 5 10 6 13 3 4 -4 -24 -37 -62 -73 -55 -55 -90 -78 -188 -125 -138 -67
-189 -80 -319 -80 -119 0 -258 34 -374 92 -114 56 -234 172 -285 274 -90 179
-119 401 -78 599 39 192 151 370 292 464 73 49 200 99 294 116 95 18 236 18
319 0z m4926 -62 c9 -39 33 -103 53 -141 21 -39 37 -79 37 -90 0 -10 9 -31 20
-45 24 -30 25 -37 5 -37 -8 0 -15 -4 -15 -10 0 -5 -12 -13 -27 -16 -15 -4 -33
-13 -40 -19 -14 -15 -98 -29 -113 -20 -5 3 -10 -1 -10 -9 0 -9 -7 -16 -15 -16
-8 0 -15 5 -15 10 0 20 -19 9 -29 -17 l-11 -28 6 30 c3 16 2 27 -2 23 -4 -4
-19 12 -34 35 -43 67 -113 138 -109 110 4 -22 -2 -44 -10 -39 -5 3 -23 -54
-41 -127 -31 -127 -40 -147 -67 -147 -24 0 -30 35 -22 115 19 180 70 319 139
377 50 44 237 140 263 136 16 -2 23 -17 37 -75z m580 14 c-11 -30 -40 -84 -63
-118 -23 -35 -42 -73 -42 -84 0 -14 -9 -21 -35 -26 -19 -4 -45 -10 -57 -14
-13 -4 -23 -5 -23 -2 0 3 32 38 71 79 39 40 91 108 116 151 25 42 48 76 50 74
2 -3 -6 -29 -17 -60z m235 7 c96 -53 185 -117 185 -135 0 -12 -21 -5 -110 38
-47 22 -111 52 -142 66 -52 23 -58 29 -58 56 0 17 5 31 10 31 6 0 57 -25 115
-56z m-4892 -58 c18 -7 40 -22 50 -34 47 -52 13 -114 -40 -73 -40 32 -103 28
-142 -8 -19 -18 -31 -39 -31 -55 0 -20 -5 -26 -23 -26 -32 0 -47 18 -47 57 0
57 44 119 100 142 36 14 96 13 133 -3z m1454 -22 c12 -15 29 -45 39 -65 15
-34 15 -44 4 -84 -15 -55 -46 -75 -115 -75 -26 0 -45 -5 -45 -11 0 -18 60 -69
82 -69 10 0 16 -4 13 -10 -18 -29 -119 9 -154 58 -49 69 -49 152 -1 230 40 65
134 79 177 26z m1671 -17 c25 -26 52 -88 52 -118 0 -40 -41 -97 -82 -114 -34
-13 -43 -13 -74 0 -38 16 -73 77 -74 128 -1 93 121 165 178 104z m1085 -78
c32 -41 36 -49 20 -49 -12 0 -29 20 -51 59 -30 56 -44 97 -19 57 7 -10 29 -40
50 -67z m-2505 58 c122 -32 182 -115 190 -264 4 -83 4 -83 -19 -81 -20 3 -26
-4 -37 -42 -23 -78 -23 -77 -32 -55 -4 11 -10 65 -14 119 -4 56 -14 114 -23
133 -22 47 -65 80 -115 88 -102 15 -98 12 -98 60 0 25 5 45 13 48 23 10 83 7
135 -6z m1770 -7 c18 -11 37 -32 42 -46 44 -114 -66 -227 -142 -146 -63 65
-59 162 7 200 29 17 56 14 93 -8z m2147 -35 l25 -24 -1 -398 c-1 -369 -2 -394
-16 -338 -8 33 -19 63 -26 67 -24 15 -37 8 -37 -20 0 -33 -28 -133 -41 -147
-5 -5 -10 -18 -11 -30 -5 -61 -16 291 -17 548 -1 245 2 303 14 327 24 47 72
54 110 15z m-6227 -54 c11 -7 8 -17 -16 -50 -17 -23 -33 -48 -36 -54 -8 -20
-26 16 -19 38 7 25 42 75 51 75 4 0 13 -4 20 -9z m-391 -54 c4 -7 39 -21 77
-32 75 -22 92 -38 83 -77 l-7 -26 -67 25 c-88 32 -149 32 -243 0 l-75 -26 -17
22 c-31 38 -23 54 40 77 31 12 72 24 90 27 18 3 35 10 38 14 8 14 72 11 81 -4z
m263 -137 c0 -32 -26 -64 -43 -54 -19 11 -47 37 -47 43 0 3 9 21 20 39 20 32
21 32 45 16 17 -11 25 -25 25 -44z m-520 17 c15 -27 14 -29 -18 -58 -38 -34
-51 -30 -73 23 -12 28 -11 32 11 50 31 25 61 19 80 -15z m-110 -80 c0 -5 6
-15 14 -21 12 -9 10 -20 -14 -71 l-28 -60 -1 65 c0 36 3 72 8 80 6 8 7 18 4
23 -3 5 -20 -28 -38 -73 -18 -44 -35 -84 -39 -87 -23 -23 19 107 50 155 12 19
18 21 30 11 8 -6 14 -16 14 -22z m428 -8 l23 -16 -26 -24 c-13 -13 -25 -30
-25 -37 0 -7 -4 -10 -10 -7 -5 3 -10 2 -10 -3 0 -5 -12 -7 -27 -5 -23 4 -20 0
15 -17 51 -26 76 -69 74 -125 -2 -56 -20 -94 -53 -110 -37 -20 -109 -19 -138
1 -31 22 -61 89 -61 138 0 32 7 45 36 72 19 19 43 34 52 35 9 0 12 3 5 5 -16
7 -72 -23 -95 -50 -17 -20 -18 -20 -12 -1 6 20 5 20 -10 1 -9 -11 -16 -15 -16
-9 0 18 -41 27 -51 12 -15 -25 -11 10 6 46 22 44 65 84 111 101 52 19 181 15
212 -7z m1601 -8 c41 -11 35 -28 -16 -44 -116 -36 -164 -47 -251 -57 -51 -6
-112 -17 -135 -25 -23 -8 -43 -12 -45 -10 -2 2 -1 17 3 33 8 40 62 89 110 101
46 10 298 12 334 2z m2634 -17 c60 -15 122 -42 115 -49 -2 -2 -23 1 -48 6 -32
7 -78 6 -169 -6 -158 -20 -229 -31 -260 -40 -23 -8 -24 -7 -18 26 4 19 18 44
33 57 23 20 35 22 156 22 86 0 151 -5 191 -16z m1167 2 c0 -25 -12 -46 -25
-46 -19 0 -38 28 -31 45 7 19 56 20 56 1z m-3472 -150 c2 -15 1 -39 -3 -53 -4
-19 -10 -23 -28 -19 l-22 6 21 -11 c25 -13 34 -53 33 -154 -1 -94 -17 -56 -19
45 l-2 75 -18 -77 c-18 -78 -42 -128 -61 -128 -6 0 -8 -4 -4 -9 3 -5 1 -12 -4
-15 -5 -3 -12 1 -15 10 -10 26 -7 224 4 245 12 22 5 23 -39 8 -40 -14 -49 -31
-57 -112 l-7 -66 -26 18 c-49 35 -146 79 -209 96 -132 34 -244 13 -376 -69
-137 -86 -244 -230 -281 -381 -20 -82 -46 -318 -36 -325 20 -12 21 -66 3 -99
-22 -41 -43 -53 -35 -19 3 13 3 20 -1 17 -4 -4 -18 -58 -32 -120 -13 -63 -40
-179 -59 -259 -19 -80 -39 -174 -45 -210 -7 -36 -28 -130 -48 -210 -29 -119
-35 -164 -36 -255 -1 -103 1 -114 29 -170 40 -79 188 -228 270 -272 94 -49
185 -73 279 -73 156 0 266 51 356 163 48 60 65 55 31 -10 -23 -45 -113 -134
-156 -156 -69 -34 -152 -51 -263 -53 -63 -2 -119 -7 -125 -12 -25 -18 -130 -6
-187 22 -108 54 -134 72 -178 126 -25 30 -42 46 -38 35 16 -42 29 -122 23
-139 -4 -11 -13 -16 -22 -13 -10 4 -12 1 -8 -10 4 -11 2 -14 -8 -11 -20 6 -95
134 -113 193 -25 81 -37 222 -26 310 22 170 82 481 184 950 35 160 69 319 76
355 34 186 90 382 131 461 83 160 250 295 450 365 102 36 167 42 449 40 l245
-1 3 -29z m1554 11 c7 -13 8 -70 3 -169 l-7 -149 -27 -10 c-14 -6 -28 -10 -31
-9 -3 0 -8 -14 -11 -32 -4 -18 -7 20 -8 84 0 64 -4 119 -8 121 -5 2 -66 1
-136 -2 -106 -5 -131 -9 -141 -24 -7 -9 -21 -17 -30 -17 -9 0 -31 -7 -49 -16
-32 -17 -176 -57 -277 -76 -30 -6 -69 -19 -87 -29 -19 -11 -40 -19 -48 -19 -8
0 -15 -4 -15 -9 0 -5 -16 -15 -36 -21 -20 -7 -48 -18 -62 -26 -15 -8 -36 -14
-47 -14 -16 0 -17 -2 -6 -9 11 -7 4 -11 -25 -16 -21 -3 -57 -15 -79 -25 -22
-11 -49 -20 -60 -20 -11 -1 -28 -7 -38 -14 -10 -8 -27 -12 -37 -9 -13 4 -20 0
-20 -10 0 -14 -20 -27 -40 -27 -5 0 -11 10 -13 23 -2 12 -5 -42 -6 -121 l-1
-142 33 -34 32 -35 400 -6 c220 -4 427 -10 460 -14 l60 -7 -80 -7 c-44 -4
-261 -8 -481 -9 l-402 -2 -35 27 c-19 14 -44 46 -55 69 -18 40 -20 72 -26 416
-4 253 -3 380 4 393 11 19 24 19 716 18 689 -2 705 -3 716 -22z m755 -11 c178
-45 326 -133 431 -257 90 -105 135 -205 166 -362 14 -70 37 -171 50 -225 14
-53 32 -135 40 -182 9 -47 29 -143 46 -215 56 -242 151 -756 169 -918 10 -86
0 -252 -16 -282 -8 -14 -13 -13 -36 9 -25 23 -27 31 -27 102 l0 78 -34 -57
c-79 -131 -191 -226 -338 -286 -148 -61 -207 -63 -368 -15 -108 33 -173 68
-216 118 -32 37 -83 58 -84 33 -2 -35 -80 157 -80 195 0 16 7 19 44 17 l44 -3
38 -79 c67 -137 172 -220 313 -247 153 -29 276 6 434 122 108 80 160 155 192
279 30 111 23 199 -35 449 -15 69 -40 184 -55 255 -26 126 -42 200 -104 470
-17 72 -35 171 -41 220 -28 230 -77 343 -205 471 -83 83 -165 137 -271 176
-53 20 -81 22 -267 24 -190 3 -211 5 -241 23 -18 12 -43 21 -55 21 l-21 0 20
-20 c22 -22 24 -39 11 -84 -6 -17 -17 -57 -26 -88 -18 -61 -29 -72 -40 -37 -6
17 -9 19 -16 8 -5 -8 -9 -9 -9 -4 0 6 -7 1 -16 -10 -14 -18 -15 -11 -13 83 1
66 -3 108 -10 115 -6 6 -11 37 -11 68 0 71 -24 66 295 63 220 -2 248 -4 342
-28z m-4714 -45 c24 -24 -35 -83 -65 -65 -17 11 -26 48 -16 68 8 14 17 17 41
12 17 -4 35 -10 40 -15z m811 13 c24 -9 21 -71 -4 -79 -23 -7 -55 8 -64 31 -9
24 0 34 51 53 1 1 8 -2 17 -5z m3666 -94 c0 -5 10 -10 23 -10 19 0 -165 -99
-185 -100 -5 0 -8 25 -8 56 l0 57 70 -5 c39 -3 70 -1 70 3 0 5 7 9 15 9 8 0
15 -4 15 -10z m1389 -9 c20 -13 6 -63 -17 -59 -18 3 -27 30 -18 54 6 16 15 17
35 5z m-1131 -118 c39 -29 61 -64 67 -108 8 -54 -3 -67 -42 -56 -27 8 -32 6
-36 -10 -7 -24 -72 -52 -107 -46 -23 5 -26 2 -28 -24 l-2 -29 62 -1 c53 0 59
-2 38 -10 -17 -8 -41 -7 -77 1 -124 27 -170 156 -91 253 46 56 160 72 216 30z
m-2847 -30 c43 -26 52 -58 40 -143 -8 -60 -15 -78 -38 -101 -43 -41 -72 -43
-127 -9 -56 36 -69 65 -64 147 4 64 22 97 63 114 34 13 96 10 126 -8z m-1201
-97 c0 -7 -9 -21 -20 -31 -19 -17 -21 -17 -39 -1 -29 26 -35 65 -14 88 17 19
18 19 45 -11 16 -17 28 -37 28 -45z m-541 40 c8 -10 6 -21 -12 -46 -29 -44
-42 -47 -63 -15 -16 25 -16 27 6 50 26 28 52 32 69 11z m255 -112 c3 -9 6 -27
6 -40 0 -22 -4 -25 -31 -22 -44 4 -59 30 -35 57 23 25 51 27 60 5z m5476 -8
c0 -28 -24 -41 -40 -21 -16 20 -5 45 20 45 14 0 20 -7 20 -24z m-5143 -38 c-3
-8 -6 -5 -6 6 -1 11 2 17 5 13 3 -3 4 -12 1 -19z m3630 -49 c66 -25 125 -117
108 -169 -6 -18 -8 -19 -35 -5 -28 14 -29 14 -35 -15 -10 -45 -75 -61 -137
-35 -13 5 -18 3 -18 -8 0 -8 -5 -17 -11 -19 -9 -3 -9 -10 0 -27 12 -21 11 -22
-8 -12 -66 36 -95 131 -63 204 21 47 40 62 107 83 51 16 58 16 92 3z m-2689
-32 c16 -16 38 -43 47 -61 18 -33 18 -34 -5 -71 l-23 -38 -19 23 -18 22 -31
-26 c-23 -20 -42 -26 -77 -26 -43 -1 -45 -2 -24 -13 29 -16 19 -27 -25 -27
-77 0 -128 112 -87 190 24 45 68 61 161 57 63 -2 76 -6 101 -30z m540 0 c28
-26 30 -73 2 -82 -11 -4 -35 -20 -53 -36 -33 -30 -68 -43 -149 -53 -45 -5 -48
-4 -79 35 l-32 41 18 34 c10 19 35 44 54 57 66 40 196 43 239 4z m2832 11 c48
-33 72 -71 74 -114 1 -45 -16 -52 -51 -20 l-23 19 0 -26 c0 -63 -96 -92 -154
-46 l-26 21 10 -24 c7 -14 8 -32 2 -47 l-8 -23 -31 26 c-42 35 -57 83 -44 133
27 99 169 156 251 101z m-5501 -149 c42 -23 77 -70 85 -114 4 -16 3 -24 0 -17
-3 6 -14 12 -25 12 -11 0 -29 9 -41 20 -35 32 -84 26 -124 -14 -26 -26 -34
-42 -34 -69 0 -20 5 -39 11 -43 8 -5 8 -9 -1 -14 -9 -5 -3 -15 19 -31 17 -12
31 -26 31 -30 0 -11 -59 -2 -75 11 -28 23 -54 95 -56 153 -2 68 16 99 77 134
49 28 86 29 133 2z m2316 -58 c15 -22 24 -45 20 -51 -6 -9 -10 -9 -16 1 -17
28 -21 -21 -5 -62 15 -37 15 -44 1 -65 -21 -32 -62 -41 -97 -21 -25 14 -28 14
-37 0 -4 -9 -6 -25 -3 -36 3 -14 1 -18 -6 -13 -8 4 -12 38 -12 88 l0 81 58 59
c33 32 61 58 64 58 3 0 18 -18 33 -39z m4004 0 c19 -12 4 -51 -20 -51 -13 0
-19 7 -19 23 0 35 13 44 39 28z m-1919 -5 c0 -2 -8 -10 -17 -17 -16 -13 -17
-12 -4 4 13 16 21 21 21 13z m-4418 -53 c33 -39 31 -69 -8 -107 -22 -22 -41
-20 -69 9 -29 28 -32 70 -8 97 21 23 65 23 85 1z m5177 -68 c116 -58 142 -178
56 -254 -40 -35 -102 -54 -142 -45 -150 35 -182 215 -54 301 44 29 80 29 140
-2z m-2088 -69 c128 -27 256 -114 313 -210 25 -42 56 -136 56 -168 0 -34 -20
-18 -49 40 -16 31 -37 66 -46 77 -15 19 -16 19 -11 -10 28 -178 29 -194 17
-252 -8 -32 -23 -78 -34 -103 -29 -61 -116 -146 -179 -175 -89 -39 -108 -38
-28 2 145 73 216 176 227 328 10 136 -55 241 -193 311 -75 38 -81 39 -178 39
-121 0 -168 -18 -247 -92 -60 -56 -84 -99 -105 -190 -12 -52 -13 -80 -5 -124
18 -106 88 -215 164 -259 58 -33 44 -38 -42 -15 -30 8 -58 12 -63 9 -5 -3 14
-24 42 -47 27 -22 50 -44 50 -49 0 -4 9 -8 21 -8 15 0 19 -5 15 -15 -3 -8 2
-19 12 -24 9 -6 12 -11 7 -11 -6 0 -47 18 -90 41 -103 53 -167 115 -212 207
-32 64 -37 83 -41 170 -5 111 9 174 60 276 77 152 255 259 438 265 19 0 65 -6
101 -13z m1474 0 c122 -34 200 -85 270 -177 47 -64 90 -147 80 -157 -3 -3 -23
13 -45 36 -21 23 -41 42 -43 42 -2 0 0 -26 5 -57 11 -65 5 -189 -12 -246 -6
-22 -13 -37 -16 -35 -2 2 1 20 6 39 18 60 13 159 -9 220 -25 67 -86 139 -145
174 -47 28 -151 55 -212 55 -123 0 -265 -87 -319 -195 -27 -55 -30 -69 -30
-160 0 -89 3 -107 28 -159 15 -33 44 -80 65 -105 20 -25 28 -39 17 -31 -11 8
-24 21 -28 28 -5 7 -13 9 -19 6 -6 -4 -8 -2 -4 4 3 6 2 13 -4 17 -6 4 -7 -11
-3 -41 5 -39 4 -46 -8 -39 -8 5 -1 -6 15 -25 16 -19 42 -43 57 -52 28 -17 28
-19 12 -38 -18 -21 -28 -27 -18 -11 7 12 -9 22 -43 26 -39 4 -107 85 -156 185
-39 81 -41 90 -45 192 -4 130 17 210 79 305 45 68 85 103 170 151 101 57 250
77 355 48z m2990 -38 c77 -61 70 -201 -12 -229 -111 -36 -213 85 -158 191 8
16 25 36 37 44 33 23 100 20 133 -6z m-6249 -63 c17 -3 42 -17 55 -31 l24 -25
-25 9 c-15 6 -51 6 -90 1 -36 -5 -184 -10 -330 -11 -146 -1 -237 -3 -202 -5
34 -2 62 -8 62 -13 0 -15 -64 -70 -82 -70 -10 0 -18 -4 -18 -10 0 -5 -7 -10
-15 -10 -9 0 -18 -7 -21 -15 -4 -8 -17 -15 -29 -15 -13 0 -30 -7 -39 -15 -8
-8 -21 -15 -29 -15 -26 0 -47 -12 -47 -26 0 -8 -10 -14 -24 -14 -13 0 -33 -3
-43 -7 -16 -6 -17 -5 -3 12 14 17 14 17 -7 5 -12 -8 -20 -17 -18 -20 2 -4 -9
-4 -26 -2 -17 3 -29 0 -29 -7 0 -6 12 -12 28 -12 21 -1 22 -3 6 -6 -11 -2 -38
-20 -58 -39 -21 -20 -44 -33 -52 -30 -12 5 -14 -44 -13 -332 1 -327 -4 -418
-22 -406 -5 3 -9 -4 -9 -15 0 -12 -4 -21 -9 -21 -9 0 -20 350 -24 790 -2 237
0 268 16 297 21 40 48 55 107 63 55 6 922 2 966 -5z m520 -63 c18 -9 63 -46
101 -82 62 -59 65 -65 37 -56 -18 6 -30 14 -28 18 3 4 2 8 -3 8 -4 -1 -21 -20
-37 -43 -16 -23 -31 -37 -33 -30 -3 7 -15 1 -31 -14 l-27 -25 -6 24 c-6 22 -6
22 -13 -7 -4 -16 -22 -86 -41 -155 -69 -252 -125 -538 -125 -638 0 -66 -18
-66 -38 -1 -16 52 -4 183 29 320 11 46 33 147 49 224 16 77 40 195 54 263 14
68 26 133 26 145 0 27 26 67 43 67 7 -1 26 -9 43 -18z m1219 -43 c71 -19 131
-65 159 -122 27 -52 34 -97 16 -97 -5 0 -10 6 -11 13 0 6 -4 3 -9 -8 -8 -18
-9 -18 -9 -2 -1 22 -31 56 -31 35 0 -7 -19 9 -42 34 -24 26 -54 50 -68 54 -23
6 -23 6 5 -19 l30 -26 -22 -16 c-12 -8 -29 -22 -38 -31 -8 -8 -50 -27 -93 -41
-113 -37 -112 -36 -112 -93 0 -65 14 -94 64 -127 35 -23 52 -27 116 -28 46 -1
86 4 103 13 16 7 31 12 33 10 2 -2 -22 -17 -52 -32 -49 -25 -64 -28 -123 -24
-150 11 -234 106 -234 264 0 90 26 148 86 191 78 56 154 73 232 52z m1508 -15
c45 -24 79 -51 99 -82 21 -31 21 -32 9 -51 -8 -13 -12 -13 -27 0 -14 11 -18
11 -22 1 -2 -8 -15 -3 -38 18 -38 33 -68 42 -41 12 16 -17 15 -20 -11 -45 -27
-26 -126 -77 -150 -77 -7 0 -22 -5 -35 -12 -51 -26 -56 -27 -61 -15 -4 7 -3
-8 0 -33 4 -25 6 -60 6 -78 -1 -18 2 -41 7 -51 11 -19 125 -61 169 -61 20 -1
23 -3 12 -9 -20 -12 -129 3 -165 22 -110 56 -153 225 -91 352 30 61 66 91 141
118 59 21 147 17 198 -9z m-3237 -119 c-9 -14 -27 -27 -40 -31 -28 -7 -92 20
-100 42 -5 12 -1 12 24 -1 47 -24 76 -19 102 17 18 27 23 29 26 15 2 -10 -4
-29 -12 -42z m2463 -31 c32 -26 43 -58 17 -48 -9 4 -20 -6 -31 -25 -17 -35
-33 -38 -75 -16 -25 13 -30 13 -30 1 0 -8 11 -24 24 -37 14 -13 23 -27 20 -30
-8 -13 -44 3 -64 29 -30 37 -25 75 14 116 41 45 81 48 125 10z m-2945 -23 c3
-4 23 -11 43 -15 58 -9 134 -49 177 -92 119 -119 142 -352 48 -482 -52 -73
-130 -124 -207 -137 -22 -3 -50 -11 -61 -17 -25 -12 -99 7 -191 47 -85 38
-129 78 -164 151 -27 57 -31 76 -31 152 0 100 15 152 68 229 44 64 107 107
196 134 38 12 71 25 74 30 7 11 41 12 48 0z m6432 -102 c8 -7 23 -24 33 -38
l19 -26 -596 3 c-328 1 -597 4 -599 5 -1 2 -6 18 -9 35 l-6 31 73 4 c41 3 298
3 572 1 373 -2 502 -6 513 -15z m-52 -165 c12 -12 16 -35 15 -97 0 -45 -3 -89
-7 -97 -6 -13 -32 -16 -147 -17 -77 -1 -165 -5 -195 -8 -92 -8 -331 -53 -405
-74 -98 -29 -110 -28 -158 23 -23 24 -55 47 -70 50 -15 4 -25 11 -22 16 3 5 1
11 -4 14 -14 9 -20 -17 -15 -65 5 -46 -49 155 -61 229 l-7 42 530 0 c469 0
532 -2 546 -16z m-3786 -44 c-9 -27 -28 -50 -28 -35 0 9 30 65 35 65 2 0 -1
-14 -7 -30z m1059 -146 c-3 -3 -12 -4 -19 -1 -8 3 -5 6 6 6 11 1 17 -2 13 -5z
m1730 -136 c-3 -8 -6 -5 -6 6 -1 11 2 17 5 13 3 -3 4 -12 1 -19z m-2515 -135
c10 -9 18 -25 18 -35 0 -27 -29 -68 -49 -68 -29 0 -61 30 -61 57 0 54 54 81
92 46z m342 -36 c12 -34 -5 -73 -39 -89 -22 -10 -29 -8 -50 12 -40 38 -31 91
20 118 25 14 56 -5 69 -41z m-637 -4 c15 -22 15 -26 -4 -51 -35 -47 -93 -37
-124 20 -12 23 5 56 34 67 30 11 75 -6 94 -36z m1274 -103 l-9 -55 -1 61 c0
33 2 64 7 68 12 13 13 -15 3 -74z m-1763 -22 c31 -31 -10 -108 -57 -108 -25 0
-61 37 -61 62 0 45 86 78 118 46z m1314 -25 c28 -25 22 -48 -21 -82 -45 -36
-57 -38 -71 -12 -16 32 -12 57 16 85 31 30 50 33 76 9z m-1048 -42 c32 -33 30
-55 -9 -91 l-24 -22 -33 19 c-18 10 -37 32 -43 47 -8 25 -6 31 18 52 37 31 57
30 91 -5z m-2622 -31 c23 -29 23 -67 -2 -107 -16 -27 -26 -33 -56 -33 -48 0
-73 15 -90 55 -19 46 -18 48 13 85 24 30 30 32 72 27 30 -3 51 -12 63 -27z
m303 13 c44 -43 33 -126 -19 -151 -83 -41 -167 78 -101 143 29 30 94 34 120 8z
m289 -14 c37 -29 36 -81 -4 -120 -21 -22 -37 -29 -57 -27 -54 6 -90 123 -48
154 27 20 78 17 109 -7z m2609 6 c170 -44 297 -177 321 -335 l6 -45 -37 -3
c-43 -3 -49 -10 -58 -71 -10 -74 -27 -124 -48 -148 -12 -13 -15 -23 -9 -23 9
0 9 -5 0 -20 -7 -11 -18 -20 -25 -20 -7 0 -10 -6 -7 -14 10 -25 -55 -64 -114
-68 -28 -1 -52 0 -52 4 0 4 21 19 48 32 64 33 117 85 148 146 37 73 37 185 1
263 -51 113 -153 177 -281 177 -86 0 -148 -23 -200 -75 -68 -69 -90 -124 -91
-225 0 -75 3 -91 29 -137 31 -56 76 -108 116 -135 l25 -17 -32 9 c-18 5 -37
11 -43 15 -7 4 -36 4 -65 0 -44 -5 -53 -9 -49 -23 10 -32 -57 53 -82 104 -38
77 -50 161 -37 252 15 102 44 167 101 226 64 66 114 96 202 122 89 27 155 29
233 9z m638 -85 c46 -25 64 -115 30 -149 -25 -25 -86 -37 -106 -21 -21 18 -37
76 -30 110 7 31 47 70 72 70 8 0 23 -5 34 -10z m444 -107 c27 -80 27 -102 2
-95 -10 3 -23 -1 -28 -9 -5 -9 -9 19 -9 74 0 48 4 87 8 87 5 0 17 -26 27 -57z
m-1808 -25 c13 -12 23 -32 23 -44 0 -30 -46 -66 -74 -58 -59 18 -73 69 -30
103 34 27 52 26 81 -1z m675 -14 c10 -6 -16 -34 -31 -34 -18 0 -13 -10 18 -36
17 -14 42 -49 56 -79 24 -48 26 -58 15 -89 -13 -39 -58 -83 -96 -92 -31 -8
-83 23 -111 67 -13 18 -27 39 -33 46 -5 7 -11 20 -12 30 -1 10 -4 -13 -7 -52
l-6 -70 -19 53 c-35 103 9 225 94 261 23 10 114 6 132 -5z m-928 0 c22 -8 20
-41 -2 -53 -37 -20 -87 17 -67 49 7 11 45 13 69 4z m-1742 -123 c50 -19 168
-110 127 -98 -17 6 -99 -11 -112 -22 -4 -4 -41 4 -83 18 -71 23 -80 24 -147
13 -85 -15 -157 -52 -217 -112 -60 -59 -88 -119 -102 -221 -8 -57 -18 -88 -29
-97 -10 -6 -20 -26 -24 -42 -4 -17 -10 -30 -15 -30 -12 0 -30 93 -30 159 0
222 109 373 319 443 77 25 232 20 313 -11z m3801 -132 c7 -1 20 0 30 1 16 1
49 -20 100 -65 9 -8 21 -15 26 -15 5 0 11 -5 13 -11 2 -5 22 -13 46 -16 40 -5
49 -15 43 -47 -1 -5 12 -6 30 -2 17 3 45 6 61 6 21 0 29 4 25 13 -4 11 6 11
56 -1 66 -16 413 -24 473 -10 27 6 31 5 27 -11 -4 -15 -17 -18 -101 -19 -53 0
-123 -1 -155 -1 -36 -1 -56 -5 -52 -11 4 -7 -19 -9 -67 -6 -40 2 -189 4 -330
5 l-258 1 1 128 c1 96 3 119 10 95 5 -18 15 -34 22 -34z m-2081 20 c66 -14
117 -40 190 -95 110 -85 168 -176 187 -294 13 -82 2 -525 -13 -510 -5 5 -18
10 -27 10 -10 0 -25 7 -34 16 -9 9 -25 14 -35 11 -19 -5 -20 1 -20 207 0 269
-5 289 -98 387 -62 67 -158 129 -196 129 -24 0 -88 48 -108 80 -21 36 -23 56
-5 63 22 10 105 7 159 -4z m-1811 -70 c128 -42 162 -91 166 -237 1 -51 -2
-103 -7 -115 -5 -12 -11 -35 -15 -51 -5 -23 -8 -27 -16 -15 -6 10 -9 8 -9 -12
0 -19 -10 -33 -40 -52 -22 -16 -42 -23 -45 -17 -3 6 -13 10 -21 10 -8 0 -13
-4 -10 -9 23 -37 -115 -44 -194 -10 -203 87 -218 392 -25 491 84 44 125 47
216 17z m5345 -35 c6 -8 24 -14 40 -14 16 0 36 -5 44 -10 11 -7 12 -10 2 -10
-33 0 17 -28 83 -46 l70 -19 -195 -3 c-107 -2 -224 0 -260 4 l-65 7 43 18 c30
13 42 24 42 39 0 12 5 18 10 15 6 -3 10 -1 10 5 0 7 7 10 15 6 9 -3 15 0 15 9
0 27 124 26 146 -1z m-6152 10 c21 -8 20 -32 -1 -37 -13 -2 -5 -9 25 -21 23
-10 42 -22 42 -28 0 -5 4 -7 9 -4 5 3 11 -5 13 -19 4 -21 3 -23 -13 -14 -11 5
-19 16 -19 24 0 28 -48 15 -99 -25 -28 -22 -51 -46 -51 -53 0 -6 10 -28 21
-47 16 -25 17 -31 5 -21 -9 8 -19 11 -22 9 -9 -9 26 -38 46 -38 10 0 22 -5 25
-11 13 -19 -5 -23 -39 -7 -38 19 -66 69 -66 121 0 37 -14 57 -23 35 -3 -7 -6
8 -6 33 -1 51 12 68 69 93 38 17 60 19 84 10z m6470 -94 c-16 -16 -66 -17 -71
-2 -3 8 8 12 38 12 30 0 40 -3 33 -10z m334 -17 c-16 -2 -40 -2 -55 0 -16 2
-3 4 27 4 30 0 43 -2 28 -4z m255 0 c-13 -2 -33 -2 -45 0 -13 2 -3 4 22 4 25
0 35 -2 23 -4z m-7038 -35 c-3 -13 -11 -33 -18 -46 -11 -23 -11 -23 -27 10
-14 30 -14 34 0 45 8 7 23 13 33 13 14 0 17 -5 12 -22z m80 -104 c-24 -38 -35
-28 -14 13 10 21 20 51 21 68 1 21 3 17 5 -13 3 -29 -1 -52 -12 -68z m1955
-16 l-1 -113 -32 -20 c-17 -11 -42 -36 -55 -55 -23 -34 -23 -41 -20 -192 3
-145 5 -159 26 -188 22 -29 22 -30 3 -18 -12 7 -21 16 -21 19 0 12 -96 -3
-133 -22 -33 -16 -48 -21 -87 -28 -3 -1 2 -6 10 -11 12 -8 11 -10 -8 -10 -32
0 -82 -28 -82 -45 0 -26 -19 -16 -22 13 -8 58 -20 -254 -13 -339 7 -96 11
-114 44 -199 16 -42 17 -50 5 -35 -24 29 -71 135 -85 190 -12 49 -30 65 -53
46 -7 -6 -16 -8 -19 -4 -13 12 -7 379 8 513 29 246 72 355 183 459 85 80 224
142 335 150 15 1 17 -10 17 -111z m173 97 c125 -32 236 -106 297 -195 95 -140
141 -285 139 -433 -1 -40 -4 -62 -6 -49 -5 26 -18 29 -28 5 -6 -15 -10 -11
-20 17 -12 31 -14 11 -14 -166 -1 -311 -23 -470 -74 -553 -28 -46 -77 -101
-89 -101 -6 0 4 17 22 37 43 49 76 121 96 213 15 65 16 123 11 455 -5 363 -6
383 -28 440 -16 44 -38 76 -83 121 -34 33 -72 67 -86 74 l-25 13 21 -24 c32
-36 65 -95 57 -102 -3 -4 -13 -7 -20 -7 -23 0 -102 -64 -103 -82 0 -10 -3 -18
-8 -18 -11 0 -41 -116 -52 -202 -11 -94 -31 -128 -71 -128 l-29 0 0 -129 c0
-70 5 -142 11 -160 9 -26 8 -36 -6 -57 -24 -36 -43 -40 -71 -13 -22 20 -25 30
-19 59 4 19 9 95 12 168 l5 132 24 0 c33 0 94 26 110 48 17 22 19 314 3 361
-7 19 -22 36 -35 41 -23 9 -24 13 -24 123 0 106 3 127 20 127 3 0 32 -7 63
-15z m-774 -5 c10 -5 24 -23 31 -40 18 -44 -7 -80 -56 -80 -54 0 -74 15 -74
55 0 24 7 39 26 54 29 23 46 26 73 11z m4660 -4 c30 -36 -33 -68 -71 -36 -31
24 -18 50 25 50 19 0 40 -6 46 -14z m-2058 -111 c16 -9 39 -30 49 -48 21 -34
27 -97 9 -97 -5 0 -7 4 -4 10 4 6 -1 7 -11 3 -14 -5 -16 -2 -11 17 4 14 2 19
-3 14 -6 -6 -11 -24 -13 -42 -9 -78 -83 -98 -137 -35 -29 32 -32 41 -27 82 4
36 13 52 41 78 40 37 63 40 107 18z m3440 -42 c10 -10 10 -18 -1 -40 -7 -16
-15 -23 -17 -15 -4 9 -260 12 -1236 11 -697 0 -1223 -4 -1212 -9 21 -9 -114
-13 -310 -10 -59 1 -112 -4 -130 -11 l-30 -12 45 -14 c32 -9 97 -13 225 -12
202 1 338 -1 343 -5 3 -4 -714 -15 -777 -13 -37 2 -48 7 -73 38 -16 20 -30 49
-31 65 -2 27 1 29 38 35 22 3 741 6 1597 5 1206 -1 1560 -4 1569 -13z m-6455
-121 c-8 -25 -45 -72 -56 -72 -10 0 6 33 35 72 22 29 30 29 21 0z m-696 -22
c6 -11 8 -20 6 -20 -3 0 -10 9 -16 20 -6 11 -8 20 -6 20 3 0 10 -9 16 -20z
m1780 -29 c13 -26 2 -79 -21 -91 -36 -20 -46 -39 -48 -96 -2 -63 -6 -73 -22
-57 -16 16 -8 225 10 246 19 23 68 22 81 -2z m1427 -119 c25 -20 31 -32 27
-49 -7 -24 -32 -37 -56 -28 -22 9 -39 52 -32 81 8 31 21 30 61 -4z m861 -65
l3 -57 59 0 60 0 0 60 c0 33 4 60 10 60 6 0 10 -52 10 -135 0 -83 -4 -135 -10
-135 -6 0 -10 27 -10 60 l0 61 -57 -3 -58 -3 -3 -40 c-9 -124 -32 -68 -32 78
0 91 3 118 13 115 7 -3 13 -27 15 -61z m842 44 c0 -17 -8 -20 -52 -23 -52 -3
-53 -4 -56 -35 -3 -33 -3 -33 42 -33 38 0 46 -3 46 -18 0 -15 -8 -19 -42 -18
-43 1 -43 1 -43 -34 0 -35 1 -35 49 -40 73 -7 70 -27 -4 -32 -34 -1 -64 -1
-66 1 -2 2 -4 57 -4 122 l0 118 48 4 c26 2 55 4 65 5 11 1 17 -5 17 -17z
m-473 -39 c46 -61 46 -111 -1 -158 -28 -28 -41 -34 -78 -34 -33 0 -50 6 -65
23 -49 53 -56 105 -20 158 49 73 113 77 164 11z m121 6 c24 -45 61 -94 65 -87
36 53 90 119 97 119 6 0 10 -11 10 -25 0 -16 -20 -47 -57 -88 l-58 -64 -35 50
-35 50 -7 -39 c-4 -21 -7 -58 -7 -81 -1 -24 -5 -43 -11 -43 -11 0 -14 189 -4
228 9 31 16 28 42 -20z m685 -23 c-1 -53 -34 -164 -58 -202 -21 -32 -83 -59
-98 -44 -17 17 -12 139 7 185 31 74 79 118 126 113 23 -2 25 -5 23 -52z
m-2298 15 c48 -53 -1 -152 -62 -129 -37 14 -43 25 -43 82 0 40 4 49 23 57 36
14 63 11 82 -10z m725 -52 c0 -39 -17 -43 -35 -8 -9 17 -20 28 -25 25 -21 -13
-9 25 12 39 21 15 23 14 35 -7 7 -12 12 -34 13 -49z m2536 28 c51 -43 30 -126
-32 -126 -21 0 -74 51 -74 70 0 25 22 62 42 70 33 13 34 12 64 -14z m-1477
-98 l-2 -83 -10 67 c-8 62 -6 98 8 98 3 0 4 -37 4 -82z m999 -57 c83 -43 132
-122 132 -214 0 -43 -6 -63 -31 -101 -17 -26 -48 -59 -68 -74 -49 -36 -51 -40
-51 -94 0 -32 -4 -48 -12 -48 -7 0 -23 -3 -35 -6 -22 -6 -23 -4 -23 74 l0 79
39 26 c55 37 105 112 106 159 0 72 -75 138 -157 138 -56 0 -91 -19 -108 -59
-10 -26 -8 -33 20 -72 25 -35 31 -51 26 -77 -8 -53 -54 -120 -107 -159 -46
-33 -50 -39 -48 -72 3 -60 0 -71 -20 -71 -45 0 -51 9 -51 77 l0 65 59 57 c51
49 60 64 66 104 7 43 5 49 -19 68 -60 48 -14 142 99 199 52 26 133 27 183 1z
m-4730 3 c14 -4 22 -14 22 -28 0 -21 -5 -23 -81 -25 -101 -2 -152 -13 -234
-50 -79 -36 -137 -89 -233 -213 -41 -54 -79 -98 -84 -98 -32 0 59 175 128 245
50 50 156 121 221 146 61 24 209 37 261 23z m4402 -24 c24 -15 1 -40 -59 -62
-57 -21 -86 -56 -97 -116 -5 -26 -9 -30 -20 -21 -11 9 -14 7 -14 -10 0 -12 6
-30 12 -41 14 -22 -1 -93 -43 -205 -29 -78 -117 -167 -211 -214 l-67 -34 -471
2 c-259 1 -477 4 -484 7 -16 6 -25 74 -14 103 4 13 21 22 44 27 20 4 229 5
463 2 489 -6 481 -7 556 73 58 63 98 147 103 222 l4 57 -35 15 c-75 31 -90 81
-35 115 39 23 52 14 62 -40 l6 -35 -18 28 c-20 32 -55 33 -60 1 -3 -24 22 -50
58 -59 22 -5 31 1 60 40 18 25 37 40 40 35 4 -6 20 11 37 38 17 28 44 55 64
65 38 18 96 22 119 7z m-1998 -91 c84 -17 211 -84 271 -144 64 -62 127 -163
137 -216 4 -21 3 -36 -1 -33 -5 3 -9 -2 -9 -11 0 -9 5 -13 10 -10 6 4 10 -5
10 -19 0 -17 14 -40 40 -66 59 -59 53 -120 -11 -120 -56 0 -59 6 -59 94 0 60
-4 87 -16 102 -12 14 -14 15 -11 3 13 -41 19 -182 9 -202 -6 -12 -22 -61 -36
-108 -14 -47 -35 -96 -47 -110 -11 -13 -28 -35 -36 -49 -17 -28 -103 -99 -148
-122 -17 -9 -63 -26 -104 -38 -59 -18 -88 -22 -150 -17 -117 8 -176 35 -316
145 -5 4 -18 6 -27 4 -9 -2 -27 2 -38 8 -30 16 -33 9 -15 -34 15 -36 13 -76
-5 -76 -18 0 -101 105 -129 163 -66 140 -76 239 -41 407 27 131 65 203 148
282 73 69 194 138 283 162 65 18 218 20 291 5z m662 1 c39 -14 31 -29 -12 -23
-34 5 -42 1 -61 -23 -48 -61 -4 -140 63 -114 33 12 34 36 1 44 -30 8 -32 22
-5 31 37 12 60 -3 60 -40 0 -46 -35 -70 -88 -62 -42 7 -82 48 -82 85 0 48 46
101 97 112 1 0 13 -4 27 -10z m370 -20 c42 -37 51 -71 31 -110 -21 -40 -57
-62 -97 -58 l-33 3 -3 98 -3 97 35 0 c25 0 45 -9 70 -30z m376 10 c0 -4 -20
-10 -45 -12 -30 -2 -45 1 -45 9 0 6 17 13 38 15 41 4 52 1 52 -12z m149 11
c18 -11 5 -31 -19 -31 -18 0 -19 -6 -13 -80 4 -57 3 -80 -6 -80 -7 0 -11 26
-11 79 0 83 -5 91 -51 91 -40 0 -17 19 29 23 26 2 49 4 52 5 3 1 11 -2 19 -7z
m-702 -73 c32 -78 47 -128 38 -128 -9 0 -65 126 -65 145 0 23 -16 18 -28 -10
-17 -37 -15 -55 7 -55 11 0 23 -4 26 -10 4 -6 -8 -10 -29 -10 -29 0 -37 -5
-48 -30 -15 -35 -32 -40 -23 -7 9 34 78 177 86 177 3 0 20 -33 36 -72z m387
66 c32 -12 15 -24 -33 -24 -40 0 -53 -4 -65 -22 -20 -28 -20 -68 -2 -93 24
-33 122 -19 102 14 -4 6 -16 11 -27 11 -28 0 -23 19 7 30 50 20 75 -39 34 -80
-40 -40 -114 -19 -146 41 -18 37 -5 90 29 114 22 15 73 20 101 9z m123 -79
c17 0 35 -3 39 -7 7 -8 -2 -12 -48 -22 -19 -4 -28 -13 -28 -26 0 -17 7 -20 40
-20 22 0 40 -5 40 -11 0 -6 -17 -9 -42 -7 -43 3 -43 3 -50 48 -3 25 -3 56 0
70 l6 25 6 -25 c5 -20 12 -25 37 -25z m-3768 16 c11 -7 14 -33 12 -111 -7
-341 94 -593 295 -736 35 -25 63 -51 61 -58 -5 -17 -104 -63 -172 -81 -78 -20
-248 -20 -329 1 -164 42 -300 168 -372 345 -102 250 18 543 258 629 57 21 220
28 247 11z m4078 -96 c-5 -16 -77 -19 -77 -3 0 8 14 13 40 13 24 1 39 -3 37
-10z m696 -351 c35 -18 93 -68 177 -153 139 -141 113 -124 575 -361 110 -57
219 -118 243 -137 38 -31 79 -89 70 -99 -2 -2 -26 12 -52 31 -27 19 -180 100
-340 179 -179 89 -341 178 -421 231 -71 47 -133 85 -137 85 -4 0 -57 25 -118
54 l-110 55 -43 -15 c-23 -8 -71 -32 -107 -53 -36 -21 -94 -52 -130 -68 -36
-16 -108 -54 -160 -84 -52 -30 -118 -65 -145 -76 -28 -12 -102 -46 -165 -76
-63 -30 -167 -78 -231 -106 -141 -63 -252 -128 -296 -171 -39 -38 -44 -21 -13
41 35 68 106 109 475 274 322 145 390 186 474 287 139 166 319 230 454 162z
m-393 2 c0 -3 -26 -19 -57 -37 -32 -18 -80 -56 -108 -85 -57 -60 -191 -144
-344 -216 -58 -27 -137 -65 -176 -84 -81 -39 -264 -114 -278 -114 -15 0 -187
-102 -291 -172 -48 -32 -90 -57 -92 -55 -8 8 14 53 42 86 15 18 51 50 80 72
77 57 378 213 492 256 176 65 252 106 357 192 140 115 229 159 328 160 26 1
47 -1 47 -3z m-1179 -273 c39 -23 40 -59 1 -68 -52 -11 -124 30 -115 66 7 25
73 26 114 2z m-2544 -9 c-3 -3 -12 -4 -19 -1 -8 3 -5 6 6 6 11 1 17 -2 13 -5z
m4031 -47 c20 -13 111 -62 202 -109 433 -223 600 -312 600 -317 0 -3 -244 -3
-542 1 -299 4 -697 6 -885 5 -188 -1 -339 1 -335 4 4 3 39 18 77 34 39 16 151
67 250 113 99 46 225 105 280 130 55 26 147 73 205 104 58 31 106 57 108 57 1
1 19 -9 40 -22z m-831 -493 c-3 -3 -12 -4 -19 -1 -8 3 -5 6 6 6 11 1 17 -2 13
-5z m333 -4 c0 -12 -157 -12 -240 0 -42 5 -21 8 93 9 92 0 147 -3 147 -9z
m247 4 c-3 -3 -12 -4 -19 -1 -8 3 -5 6 6 6 11 1 17 -2 13 -5z m120 0 c-3 -3
-12 -4 -19 -1 -8 3 -5 6 6 6 11 1 17 -2 13 -5z m326 -1 c-7 -2 -19 -2 -25 0
-7 3 -2 5 12 5 14 0 19 -2 13 -5z"/>
<path d="M6655 8989 c-5 -7 5 -8 32 -3 51 9 54 14 10 14 -20 0 -39 -5 -42 -11z"/>
<path d="M4530 8756 c0 -2 7 -9 15 -16 13 -11 14 -10 9 4 -5 14 -24 23 -24 12z"/>
<path d="M5677 7669 c-132 -20 -219 -138 -202 -274 24 -193 195 -289 364 -204
48 24 70 43 92 77 87 138 55 270 -93 380 -24 19 -106 29 -161 21z m107 -84
c15 -12 16 -15 5 -15 -11 0 -15 -9 -14 -30 2 -35 -5 -42 -54 -50 -26 -4 -42
-15 -59 -40 -13 -19 -31 -34 -40 -33 -9 1 -21 -6 -28 -15 -12 -16 -13 -15 -21
3 -15 37 -8 113 13 136 45 51 156 75 198 44z"/>
<path d="M3627 7613 c-4 -3 -7 -39 -7 -80 l0 -73 69 0 c58 0 72 3 95 25 17 16
26 34 26 55 0 21 -9 39 -26 55 -23 21 -37 25 -89 25 -34 0 -65 -3 -68 -7z"/>
<path d="M6677 7274 c-13 -13 -8 -64 7 -64 19 0 38 26 34 47 -3 18 -29 29 -41
17z"/>
<path d="M2220 6810 c0 -6 -12 -22 -26 -37 -24 -24 -26 -24 -39 -7 -13 18 -14
18 -20 -8 -12 -49 28 -97 82 -98 76 0 114 89 59 137 -28 24 -56 30 -56 13z"/>
<path d="M3086 5854 c-4 -14 -5 -28 -3 -31 3 -2 8 8 11 23 4 14 5 28 3 31 -3
2 -8 -8 -11 -23z"/>
<path d="M3729 6344 c-20 -24 -51 -33 -79 -23 -24 9 -24 8 -6 -6 28 -21 62
-19 86 7 18 20 26 38 16 38 -2 0 -10 -7 -17 -16z"/>
<path d="M6577 5735 c-31 -27 -92 -34 -129 -14 -16 9 -19 8 -16 -3 7 -22 70
-49 103 -43 30 5 70 36 86 68 14 26 -10 21 -44 -8z"/>
<path d="M4675 5638 c-4 -11 1 -29 15 -48 30 -42 36 -31 12 22 -15 34 -21 39
-27 26z"/>
<path d="M8867 5749 c-9 -5 -24 -23 -32 -39 -15 -28 -14 -31 12 -60 32 -35 54
-33 72 6 15 34 14 55 -5 82 -17 25 -22 26 -47 11z"/>
<path d="M1720 5647 c-22 -17 -50 -59 -50 -75 0 -7 11 -24 25 -37 36 -37 86
-34 119 6 31 37 33 72 6 99 -22 22 -76 26 -100 7z"/>
<path d="M3182 5535 c0 -16 2 -22 5 -12 2 9 2 23 0 30 -3 6 -5 -1 -5 -18z"/>
<path d="M2063 5341 c-56 -26 -120 -92 -149 -154 -50 -109 -23 -258 62 -337
64 -59 120 -80 212 -80 175 0 290 107 300 280 7 132 -50 234 -161 286 -68 31
-200 34 -264 5z m175 -125 c50 -26 98 -96 66 -96 -8 0 -29 7 -46 16 -36 19
-89 12 -130 -18 -34 -24 -36 -54 -5 -99 21 -31 28 -34 69 -33 42 0 46 -2 37
-17 -25 -47 -133 -25 -169 34 -42 69 -16 181 50 214 33 17 95 16 128 -1z"/>
<path d="M7555 5130 c-3 -5 -1 -10 4 -10 6 0 11 5 11 10 0 6 -2 10 -4 10 -3 0
-8 -4 -11 -10z"/>
<path d="M1834 4435 c-31 -48 11 -110 60 -87 30 14 43 54 27 88 -15 34 -64 33
-87 -1z"/>
<path d="M2159 4450 c-46 -27 -23 -114 29 -108 38 4 66 54 49 88 -13 27 -51
37 -78 20z"/>
<path d="M2450 4444 c-17 -20 -17 -69 0 -89 21 -25 61 -15 83 23 18 30 18 34
3 57 -19 29 -66 34 -86 9z"/>
<path d="M5729 4293 c-13 -35 -8 -57 15 -61 25 -5 46 23 46 60 0 23 -4 28 -25
28 -18 0 -28 -7 -36 -27z"/>
<path d="M5000 4076 c0 -9 7 -19 15 -23 25 -9 27 2 5 22 -18 17 -20 17 -20 1z"/>
<path d="M2195 3870 c-16 -7 -11 -9 21 -9 23 -1 46 -7 51 -13 14 -17 23 -59
12 -53 -4 3 -11 -6 -15 -20 -7 -28 -55 -69 -93 -78 -17 -4 -30 1 -48 19 -21
21 -25 32 -20 65 6 46 -2 43 -44 -13 -39 -55 -40 -122 -3 -196 61 -122 230
-169 321 -89 91 80 109 240 37 326 -43 52 -163 85 -219 61z m-99 -168 c-10
-10 -39 25 -31 38 5 8 12 5 22 -10 8 -12 12 -24 9 -28z"/>
<path d="M7778 3813 c7 -3 16 -2 19 1 4 3 -2 6 -13 5 -11 0 -14 -3 -6 -6z"/>
<path d="M5480 3466 c0 -2 8 -10 18 -17 15 -13 16 -12 3 4 -13 16 -21 21 -21
13z"/>
<path d="M5956 3483 c-19 -3 -25 -7 -17 -12 15 -10 61 -2 61 10 0 5 -3 8 -7 8
-5 -1 -21 -4 -37 -6z"/>
<path d="M6205 3220 c-36 -14 -68 -56 -60 -79 13 -42 55 -81 87 -81 43 0 92
51 83 87 -17 68 -58 95 -110 73z"/>
<path d="M6920 2440 c-14 -10 -22 -21 -19 -24 3 -3 16 5 29 19 28 30 24 32
-10 5z"/>
<path d="M5018 2721 c-117 -30 -215 -112 -274 -228 -25 -51 -29 -71 -33 -166
-3 -105 -2 -110 29 -174 42 -86 144 -189 225 -229 54 -26 70 -29 160 -29 124
0 164 12 262 78 140 94 202 213 190 366 -13 158 -79 269 -208 348 -84 52 -229
66 -351 34z m260 -125 c54 -27 122 -92 122 -116 -1 -21 -32 -55 -56 -62 -15
-4 -29 3 -47 22 -54 56 -133 74 -219 48 -46 -14 -110 -74 -128 -120 -6 -18
-16 -43 -20 -55 -11 -27 -87 -43 -102 -22 -15 23 -1 104 30 166 42 82 99 131
184 159 62 20 175 11 236 -20z m-104 -225 c26 -27 27 -30 13 -57 -8 -16 -24
-38 -36 -48 -24 -22 -42 -12 -67 36 -16 31 -12 59 12 83 23 23 47 18 78 -14z
m172 -133 c-3 -7 -9 -21 -12 -30 -3 -9 -13 -19 -21 -22 -8 -3 -13 -3 -11 1 24
49 33 63 40 63 6 0 7 -6 4 -12z"/>
<path d="M6220 2846 c0 -73 1 -76 24 -76 35 0 76 37 76 69 0 32 -33 66 -72 76
l-28 7 0 -76z"/>
<path d="M2631 2593 c-74 -37 -93 -127 -40 -188 25 -28 38 -35 69 -35 31 0 44
7 73 39 44 48 51 72 37 115 -22 68 -81 98 -139 69z m57 -65 c19 -19 15 -66 -7
-78 -42 -22 -73 25 -45 67 16 26 34 29 52 11z"/>
<path d="M3780 9273 c-21 -26 -22 -35 -17 -134 8 -140 8 -139 72 -139 l52 0 7
113 c4 63 4 122 0 133 -21 59 -78 72 -114 27z"/>
<path d="M4045 9060 c-8 -37 9 -62 39 -58 15 2 22 12 24 31 7 57 -51 81 -63
27z m21 -17 c-10 -10 -19 5 -10 18 6 11 8 11 12 0 2 -7 1 -15 -2 -18z"/>
<path d="M3477 9062 c-9 -10 -17 -23 -17 -29 0 -6 -13 -16 -30 -23 -38 -16
-38 -39 0 -53 21 -8 33 -21 38 -42 13 -49 82 -44 82 7 0 11 13 26 30 36 39 22
38 38 -4 56 -23 10 -35 22 -38 38 -4 29 -38 35 -61 10z"/>
<path d="M7676 8575 c-31 -23 -56 -68 -56 -99 0 -20 12 -40 40 -68 36 -37 44
-40 78 -35 87 14 125 126 63 188 -33 33 -91 39 -125 14z m78 -77 c13 -22 -14
-54 -38 -45 -16 6 -22 48 -9 61 11 11 35 3 47 -16z"/>
<path d="M2014 8070 c-61 -31 -88 -73 -92 -148 -4 -54 -1 -68 21 -101 51 -77
162 -100 231 -47 50 38 70 86 62 150 -6 53 -41 116 -78 140 -41 27 -99 29
-144 6z m115 -94 c30 -31 33 -102 6 -122 -50 -37 -135 0 -135 58 0 76 80 116
129 64z"/>
<path d="M8113 8064 c-33 -15 12 -74 55 -74 36 0 61 36 40 57 -16 15 -75 26
-95 17z"/>
<path d="M8271 8047 c-10 -12 -6 -19 22 -36 48 -29 59 -27 55 12 -3 28 -7 32
-34 35 -18 2 -36 -3 -43 -11z"/>
<path d="M8113 7868 c-14 -24 -12 -43 9 -65 27 -29 55 -29 63 -3 7 22 -11 54
-25 45 -4 -3 -10 4 -13 15 -6 23 -22 26 -34 8z m52 -47 c-3 -6 -11 -8 -17 -5
-6 4 -5 9 3 15 16 10 23 4 14 -10z"/>
<path d="M8360 7847 c-33 -17 -37 -44 -9 -73 l23 -25 -23 -43 c-28 -50 -22
-69 17 -60 58 14 99 78 88 137 -11 61 -50 87 -96 64z"/>
<path d="M1285 6375 c-32 -31 -31 -40 4 -76 32 -32 54 -31 83 5 23 28 22 48
-2 74 -27 29 -55 28 -85 -3z"/>
<path d="M1301 5590 c-25 -42 -27 -85 -5 -140 16 -39 16 -40 -15 -87 -17 -25
-31 -54 -31 -62 1 -9 14 -32 30 -51 33 -38 39 -86 19 -150 -6 -20 -12 -143
-14 -290 -1 -140 -8 -283 -14 -318 -11 -59 -11 -66 10 -100 20 -35 21 -45 14
-168 -6 -129 -6 -132 16 -148 21 -14 24 -14 42 2 17 15 18 27 12 149 l-7 132
36 34 c40 39 41 40 26 190 -5 54 -14 174 -20 267 -7 124 -15 186 -30 227 -28
81 -26 121 10 174 16 24 30 49 30 55 0 6 -14 31 -31 57 -28 42 -29 49 -20 84
18 65 14 119 -13 150 l-24 27 -21 -34z m38 -963 c-1 -73 -7 -99 -20 -92 -10 7
-12 137 -2 174 l6 25 8 -23 c5 -12 8 -50 8 -84z"/>
<path d="M9097 5363 c-9 -15 -19 -161 -12 -182 7 -22 39 -29 51 -10 8 14 8
130 -1 169 -6 28 -28 40 -38 23z"/>
<path d="M8927 5354 c-4 -4 -7 -60 -7 -124 0 -94 3 -120 15 -130 31 -26 40 4
40 133 0 115 -1 122 -20 125 -12 2 -24 0 -28 -4z"/>
<path d="M9073 5093 c-3 -16 -6 -41 -6 -58 1 -16 3 -81 5 -143 3 -99 6 -115
22 -128 13 -9 23 -11 30 -4 11 11 27 270 19 323 -5 33 -9 37 -34 37 -23 0 -30
-6 -36 -27z"/>
<path d="M9238 5109 c-21 -12 -24 -69 -6 -87 18 -18 63 -14 81 6 46 50 -16
116 -75 81z"/>
<path d="M8921 5008 c-14 -39 -14 -183 -1 -209 13 -23 46 -25 54 -3 10 26 7
169 -5 202 -15 43 -35 47 -48 10z"/>
<path d="M9250 4850 c0 -44 4 -59 16 -64 9 -4 18 -5 19 -4 1 2 5 31 9 64 7 61
6 62 -19 62 -24 0 -25 -3 -25 -58z"/>
<path d="M9276 4706 c-4 -21 -14 -45 -22 -53 -9 -10 -14 -37 -14 -83 0 -58 3
-68 19 -73 11 -2 21 -15 23 -28 2 -13 7 26 11 86 4 61 3 128 -1 150 l-8 40 -8
-39z"/>
<path d="M9077 4673 c-3 -16 -3 -162 0 -325 6 -273 8 -297 24 -301 10 -3 20 1
23 8 2 7 8 142 11 301 7 288 7 289 -15 317 -12 15 -25 27 -30 27 -4 0 -10 -12
-13 -27z"/>
<path d="M8916 4674 c-8 -21 -8 -538 1 -587 5 -34 9 -38 32 -35 l26 3 3 299
c2 268 1 301 -14 318 -21 22 -40 23 -48 2z"/>
<path d="M9281 4415 c-4 -50 -11 -78 -24 -93 -8 -11 -12 -62 -12 -168 0 -137
-2 -153 -17 -158 -37 -9 -14 -66 27 -66 42 0 45 14 44 224 0 111 -4 221 -8
246 -7 37 -9 40 -10 15z m-2 -378 c1 -10 -3 -15 -9 -12 -5 3 -10 23 -9 43 1
33 2 34 9 12 4 -14 8 -33 9 -43z"/>
<path d="M8918 3999 c-22 -12 -23 -52 -4 -68 8 -7 27 -11 43 -9 23 2 29 8 31
36 3 27 -1 34 -23 42 -31 12 -26 12 -47 -1z"/>
<path d="M9066 3995 c-21 -22 -20 -41 4 -65 25 -25 42 -25 65 0 41 46 -26 108
-69 65z"/>
<path d="M1910 3083 c-50 -26 -74 -73 -66 -128 11 -73 33 -90 110 -90 58 0 69
3 92 27 20 19 28 40 32 76 4 46 2 53 -29 86 -42 45 -89 55 -139 29z m68 -99
c4 -38 -20 -63 -43 -44 -29 24 -15 83 19 78 15 -2 22 -11 24 -34z"/>
<path d="M8080 2808 c-109 -56 -109 -212 -1 -285 19 -13 48 -23 65 -23 42 0
105 38 134 80 50 73 10 201 -74 236 -46 19 -73 18 -124 -8z m118 -101 c19 -15
15 -74 -8 -97 -25 -25 -41 -25 -74 1 -22 17 -26 28 -24 57 4 54 61 74 106 39z"/>
<path d="M7907 2524 c-24 -24 7 -82 38 -70 16 6 22 66 6 66 -5 0 -16 2 -23 5
-8 3 -17 2 -21 -1z"/>
<path d="M4242 1925 c-69 -58 -66 -222 5 -254 112 -51 232 95 161 198 -29 43
-64 69 -104 77 -24 4 -37 0 -62 -21z m89 -85 c23 -13 25 -47 3 -78 -18 -26
-41 -28 -66 -5 -50 45 2 115 63 83z"/>
<path d="M4490 1810 c26 -53 75 -121 78 -110 2 6 -1 17 -7 23 -16 16 -14 37 6
59 15 17 15 18 -5 18 -11 0 -24 -5 -28 -12 -5 -7 -15 -2 -32 18 -21 26 -23 27
-12 4z"/>
<path d="M5603 1563 c-18 -7 -16 -78 3 -97 21 -22 40 -20 58 6 22 32 20 64 -6
82 -23 16 -34 18 -55 9z"/>
<path d="M5442 1550 c14 -4 31 -11 37 -15 6 -3 11 1 11 9 0 12 -10 16 -37 15
-35 -1 -36 -1 -11 -9z"/>
</g>
</svg>
